<svg width="66" height="66" viewBox="0 0 66 66" fill="none" xmlns="http://www.w3.org/2000/svg">
<path fill-rule="evenodd" clip-rule="evenodd" d="M32.4426 0C32.8465 0 33.174 0.328324 33.174 0.733332V7.75031C33.174 8.15532 32.8465 8.48364 32.4426 8.48364C32.0386 8.48364 31.7112 8.15532 31.7112 7.75031V0.733332C31.7112 0.328324 32.0386 0 32.4426 0ZM18.0993 3.76108C18.4591 3.57709 18.8996 3.72042 19.0831 4.08123L22.1839 10.1779C22.3674 10.5388 22.2245 10.9804 21.8646 11.1644C21.5047 11.3484 21.0643 11.205 20.8808 10.8442L17.7799 4.74751C17.5964 4.38671 17.7394 3.94507 18.0993 3.76108ZM46.9007 3.76108C47.2606 3.94507 47.4036 4.38671 47.2201 4.74751L44.1192 10.8442C43.9357 11.205 43.4953 11.3484 43.1354 11.1644C42.7755 10.9804 42.6326 10.5388 42.8161 10.1779L45.9169 4.08123C46.1004 3.72042 46.5409 3.57709 46.9007 3.76108ZM32.5824 12.512L32.5574 13.2449L32.5328 12.512C32.5494 12.5114 32.5659 12.5114 32.5824 12.512ZM41.5277 46.8455C41.6133 46.7566 41.7266 46.6382 41.8616 46.4949C42.1772 46.1599 42.6126 45.6881 43.0925 45.1398C44.0435 44.0534 45.2027 42.629 45.9373 41.3636C47.0749 39.4041 47.9041 37.7053 48.4328 35.908C48.9633 34.1047 49.1818 32.235 49.1373 29.9373C49.0788 26.9235 48.7084 24.2694 47.7324 21.8781C46.7518 19.4755 45.1773 17.3807 42.7754 15.4594C41.0241 14.0586 38.4299 13.337 36.3694 12.9566C35.3225 12.7633 34.38 12.6524 33.699 12.5898C33.3581 12.5585 33.0817 12.5391 32.8893 12.5275C32.793 12.5217 32.7177 12.5179 32.6658 12.5155L32.6057 12.5129L32.5894 12.5122L32.5847 12.512L32.5824 12.512C32.5823 12.512 32.5824 12.512 32.5574 13.2449C32.5328 12.512 32.533 12.5119 32.5328 12.512L32.5306 12.512L32.5259 12.5122L32.5093 12.5128L32.4483 12.5155C32.3956 12.5179 32.3191 12.5217 32.2214 12.5275C32.0259 12.539 31.7451 12.5584 31.399 12.5897C30.7075 12.6523 29.7508 12.7631 28.6898 12.9562C26.6025 13.3362 23.9775 14.0573 22.2246 15.4594C19.8227 17.3807 18.2482 19.4755 17.2676 21.8781C16.2916 24.2694 15.9212 26.9235 15.8627 29.9373C15.8182 32.235 16.0367 34.1047 16.5672 35.908C17.0959 37.7053 17.9251 39.4041 19.0627 41.3636C19.7973 42.629 20.9565 44.0534 21.9074 45.1398C22.3874 45.6881 22.8228 46.1599 23.1384 46.4949C23.2734 46.6382 23.3867 46.7566 23.4723 46.8455C23.485 46.9627 23.5023 47.1162 23.5244 47.2994C23.5775 47.7394 23.6587 48.3521 23.7714 49.0438C23.9942 50.4122 24.3487 52.1466 24.8728 53.4605C24.996 53.7693 25.1883 54.0551 25.3585 54.2864C25.4462 54.4056 25.5365 54.5215 25.6183 54.6262L25.6286 54.6393C25.6914 54.7197 25.7483 54.7926 25.8005 54.8616C25.7908 54.8639 25.781 54.8662 25.7709 54.8685C25.7248 54.8792 25.675 54.8905 25.6224 54.9024C25.4047 54.9517 25.1404 55.0115 24.8967 55.0869C24.5992 55.1789 24.2311 55.3222 23.9389 55.5801C23.609 55.8712 23.3965 56.2935 23.4455 56.8219C23.503 57.4425 23.8156 57.8689 24.1842 58.1689C24.2767 58.2442 24.3769 58.3143 24.4792 58.3795C24.268 58.7577 24.0264 59.3475 24.1432 59.9913C24.2237 60.4345 24.3748 61.1094 24.5712 61.6976C24.6683 61.9882 24.7866 62.2891 24.9279 62.5365C24.9984 62.6599 25.0886 62.7951 25.2034 62.9128C25.2931 63.0049 25.4306 63.1199 25.618 63.1873L25.6494 63.2037C25.7076 63.2343 25.7915 63.2788 25.894 63.3338C26.0993 63.444 26.3772 63.5956 26.6696 63.7619C26.9631 63.9288 27.2649 64.1072 27.5202 64.2715C27.792 64.4464 27.9582 64.5722 28.0209 64.635C28.1814 64.7958 28.3934 64.9047 28.551 64.9765C28.7289 65.0575 28.9352 65.1333 29.1485 65.2032C29.5765 65.3436 30.0856 65.4772 30.5647 65.5917C31.0465 65.7068 31.5107 65.8056 31.8536 65.8755C31.9598 65.8972 32.0546 65.9161 32.135 65.9319C32.2462 65.9837 32.3713 66.008 32.5 65.9977C32.6288 66.008 32.7538 65.9837 32.865 65.9319C32.9454 65.9161 33.0402 65.8972 33.1464 65.8755C33.4893 65.8056 33.9535 65.7068 34.4353 65.5917C34.9143 65.4772 35.4235 65.3436 35.8515 65.2032C36.0648 65.1333 36.2711 65.0575 36.4489 64.9765C36.6066 64.9047 36.8186 64.7958 36.9791 64.635C37.0418 64.5722 37.208 64.4464 37.4798 64.2715C37.7351 64.1072 38.0369 63.9288 38.3304 63.7619C38.6228 63.5956 38.9007 63.444 39.106 63.3338C39.2085 63.2788 39.2924 63.2344 39.3506 63.2038L39.382 63.1873C39.5694 63.1199 39.7069 63.0049 39.7966 62.9128C39.9114 62.7951 40.0016 62.6599 40.0721 62.5365C40.2133 62.2891 40.3317 61.9882 40.4288 61.6976C40.6252 61.1094 40.7763 60.4345 40.8568 59.9913C40.9736 59.3475 40.732 58.7577 40.5208 58.3795C40.6231 58.3143 40.7233 58.2442 40.8158 58.1689C41.1844 57.8689 41.497 57.4425 41.5545 56.8219C41.6035 56.2935 41.391 55.8712 41.0611 55.5801C40.7689 55.3222 40.4008 55.1789 40.1033 55.0869C39.8596 55.0115 39.5953 54.9517 39.3775 54.9024C39.325 54.8905 39.2752 54.8792 39.229 54.8685C39.219 54.8662 39.2092 54.8639 39.1995 54.8616C39.2518 54.7926 39.3087 54.7196 39.3716 54.6391L39.3817 54.6262C39.4635 54.5215 39.5538 54.4056 39.6415 54.2864C39.8117 54.0551 40.004 53.7693 40.1272 53.4605C40.6513 52.1466 41.0058 50.4122 41.2286 49.0438C41.3413 48.3521 41.4225 47.7394 41.4756 47.2994C41.4977 47.1162 41.515 46.9627 41.5277 46.8455ZM40.307 45.9997L40.3144 45.9923L40.3391 45.9671C40.3611 45.9446 40.394 45.9109 40.4365 45.8669C40.5216 45.779 40.6453 45.6501 40.7983 45.4876C41.1047 45.1625 41.5276 44.7043 41.9931 44.1724C42.933 43.0985 44.0133 41.7622 44.6731 40.6258C45.7838 38.7125 46.5485 37.1293 47.0298 35.4931C47.5094 33.8628 47.717 32.1472 47.6747 29.9658C47.6181 27.0465 47.2598 24.5927 46.3786 22.4336C45.502 20.2858 44.0906 18.3877 41.8631 16.6059C40.4106 15.444 38.1239 14.7718 36.1045 14.399C35.1113 14.2156 34.2141 14.11 33.5654 14.0504C33.2414 14.0206 32.9804 14.0023 32.8017 13.9916C32.7123 13.9862 32.6436 13.9827 32.5979 13.9806L32.5571 13.9788L32.5151 13.9806C32.4685 13.9827 32.3985 13.9862 32.3075 13.9916C32.1255 14.0024 31.8599 14.0206 31.5305 14.0504C30.8707 14.1102 29.9589 14.2158 28.9512 14.3993C26.9012 14.7725 24.5879 15.4453 23.1369 16.6059C20.9094 18.3877 19.498 20.2858 18.6214 22.4336C17.7402 24.5927 17.3819 27.0465 17.3253 29.9658C17.283 32.1472 17.4906 33.8628 17.9702 35.4931C18.4515 37.1293 19.2162 38.7125 20.3269 40.6258C20.9867 41.7622 22.067 43.0985 23.0069 44.1724C23.4724 44.7043 23.8953 45.1625 24.2017 45.4876C24.3547 45.6501 24.4784 45.779 24.5635 45.8669C24.606 45.9109 24.6389 45.9446 24.6609 45.9671L24.6856 45.9923L24.693 45.9997C24.693 45.9997 24.6929 45.9997 24.693 45.9997C24.8121 46.1203 24.8862 46.2788 24.902 46.4478C24.902 46.4478 24.902 46.4478 24.902 46.4478L24.9022 46.4499L24.9029 46.4579L24.9062 46.4914C24.9092 46.5213 24.9137 46.5661 24.9199 46.6243C24.9322 46.7407 24.951 46.9109 24.9766 47.1232C25.0279 47.5481 25.1064 48.1401 25.2151 48.8075C25.4349 50.1574 25.7695 51.7589 26.231 52.9158C26.2827 53.0454 26.3836 53.209 26.5357 53.4158C26.6092 53.5157 26.6873 53.616 26.7701 53.722L26.7842 53.7402C26.8605 53.8378 26.942 53.9421 27.017 54.0435C27.158 54.234 27.3567 54.5162 27.438 54.8198C27.4555 54.8853 27.4701 54.9606 27.4761 55.0429C27.829 55.194 28.3382 55.3442 28.9949 55.4694C29.9674 55.6548 31.1473 55.7649 32.3501 55.7823C33.5532 55.7997 34.7564 55.7241 35.7767 55.5477C36.5124 55.4206 37.102 55.2493 37.5232 55.054C37.5286 54.9674 37.5437 54.8882 37.562 54.8198C37.6433 54.5162 37.842 54.234 37.983 54.0435C38.058 53.9421 38.1394 53.8379 38.2157 53.7403L38.2299 53.722C38.3127 53.616 38.3908 53.5157 38.4643 53.4158C38.6164 53.209 38.7173 53.0454 38.769 52.9158C39.2305 51.7589 39.5651 50.1574 39.7849 48.8075C39.8936 48.1401 39.9721 47.5481 40.0234 47.1232C40.049 46.9109 40.0678 46.7407 40.0801 46.6243C40.0853 46.575 40.0894 46.5354 40.0923 46.5063L40.0938 46.4914L40.0971 46.4579L40.0978 46.4499L40.098 46.4481C40.098 46.4481 40.098 46.4481 40.098 46.4481C40.1138 46.2791 40.1879 46.1203 40.307 45.9997ZM38.5027 56.1947C37.8363 56.5839 36.9492 56.8334 36.0252 56.9931C34.8952 57.1884 33.5987 57.2672 32.329 57.2488C31.0588 57.2304 29.7926 57.1144 28.7217 56.9102C27.8856 56.7508 27.0838 56.523 26.4998 56.1939C26.3576 56.2372 26.2182 56.2701 26.1014 56.2973C26.0378 56.312 25.9761 56.326 25.9161 56.3397C25.7042 56.3878 25.5122 56.4314 25.328 56.4884C25.0866 56.5631 24.9603 56.6326 24.9054 56.681C24.8882 56.6962 24.9009 56.6738 24.902 56.6863C24.9149 56.8249 24.9659 56.9161 25.1061 57.0303C25.2553 57.1516 25.4379 57.2472 25.7041 57.3865C25.763 57.4174 25.8261 57.4504 25.8938 57.4863C26.0966 57.5938 26.2373 57.7904 26.2739 58.0175C26.3104 58.2436 26.2394 58.4737 26.0821 58.6397C26.082 58.6398 26.0822 58.6396 26.0821 58.6397C26.0819 58.6399 26.0814 58.6404 26.0812 58.6407C26.081 58.6408 26.0813 58.6405 26.0812 58.6407C26.0811 58.6408 26.0805 58.6413 26.0805 58.6414C26.0804 58.6415 26.0805 58.6413 26.0805 58.6414C26.0776 58.6445 26.0717 58.6511 26.0638 58.66C26.0481 58.6778 26.0236 58.7064 25.9936 58.7439C25.9328 58.82 25.8539 58.9276 25.7802 59.053C25.6164 59.332 25.5537 59.5706 25.5824 59.7287C25.6551 60.1291 25.7911 60.7311 25.9583 61.2319C26.0431 61.4857 26.1257 61.6823 26.1974 61.8078C26.207 61.8245 26.2153 61.8383 26.2224 61.8493C26.2258 61.851 26.2292 61.8527 26.2325 61.8544L26.2295 61.8602C26.2296 61.8602 26.2295 61.8601 26.2295 61.8602L26.2325 61.8544L26.2396 61.8581L26.2586 61.868L26.3296 61.9053C26.3907 61.9374 26.4781 61.9837 26.5843 62.0408C26.7966 62.1547 27.0857 62.3123 27.3915 62.4863C27.6961 62.6596 28.0235 62.8526 28.3102 63.0371C28.5719 63.2055 28.8508 63.3986 29.0372 63.58C29.0436 63.5836 29.0773 63.6053 29.1559 63.641C29.2658 63.6911 29.4164 63.748 29.6032 63.8092C29.9755 63.9313 30.4402 64.0542 30.9038 64.165C31.3647 64.2751 31.8121 64.3704 32.1451 64.4383C32.2874 64.4673 32.4084 64.4912 32.5 64.509C32.5916 64.4912 32.7126 64.4673 32.8549 64.4383C33.1879 64.3704 33.6353 64.2751 34.0962 64.165C34.5598 64.0542 35.0245 63.9313 35.3968 63.8092C35.5836 63.748 35.7341 63.6911 35.8441 63.641C35.9227 63.6053 35.9563 63.5837 35.9628 63.5801C36.1492 63.3986 36.4281 63.2055 36.6898 63.0371C36.9765 62.8526 37.3039 62.6596 37.6085 62.4863C37.9143 62.3123 38.2034 62.1547 38.4157 62.0408C38.5219 61.9837 38.6093 61.9374 38.6704 61.9053L38.7414 61.868L38.7655 61.8555L38.7669 61.8547L38.7704 61.8603C38.7704 61.8602 38.7704 61.8603 38.7704 61.8603L38.7669 61.8547C38.7702 61.853 38.7742 61.851 38.7776 61.8493C38.7847 61.8383 38.793 61.8245 38.8026 61.8078C38.8743 61.6823 38.9569 61.4857 39.0417 61.2319C39.2089 60.7311 39.3449 60.1291 39.4176 59.7287C39.4463 59.5706 39.3836 59.332 39.2198 59.053C39.1461 58.9276 39.0672 58.82 39.0064 58.7439C38.9764 58.7064 38.9519 58.6778 38.9362 58.66C38.9283 58.6511 38.9228 58.6449 38.9199 58.6418C38.9197 58.6417 38.919 58.6408 38.9188 58.6407C38.9186 58.6404 38.9184 58.6402 38.9182 58.6399C38.9181 58.6399 38.9182 58.64 38.9182 58.6399C38.7608 58.474 38.6896 58.2436 38.7261 58.0175C38.7627 57.7904 38.9034 57.5938 39.1062 57.4863C39.1739 57.4504 39.237 57.4174 39.2959 57.3865C39.5621 57.2472 39.7447 57.1516 39.8939 57.0303C40.0341 56.9161 40.0851 56.8249 40.098 56.6863C40.0991 56.6738 40.1118 56.6962 40.0946 56.681C40.0397 56.6326 39.9134 56.5631 39.672 56.4884C39.4878 56.4314 39.2958 56.3878 39.0839 56.3397C39.0239 56.326 38.9622 56.312 38.8986 56.2973C38.7825 56.2703 38.644 56.2376 38.5027 56.1947ZM38.774 61.8673C38.774 61.8673 38.7741 61.8673 38.774 61.8673V61.8673ZM26.2259 61.8672C26.2259 61.8672 26.2259 61.8673 26.2259 61.8672V61.8672ZM7.00026 14.1748C7.19987 13.8227 7.64637 13.6995 7.99755 13.8997L14.6585 17.6958C15.0097 17.8959 15.1326 18.3436 14.933 18.6957C14.7334 19.0478 14.2869 19.171 13.9357 18.9708L7.2747 15.1748C6.92352 14.9746 6.80065 14.527 7.00026 14.1748ZM57.9997 14.1748C58.1993 14.527 58.0765 14.9746 57.7253 15.1748L51.0643 18.9708C50.7131 19.171 50.2666 19.0478 50.067 18.6957C49.8674 18.3436 49.9903 17.8959 50.3415 17.6958L57.0024 13.8997C57.3536 13.6995 57.8001 13.8227 57.9997 14.1748ZM3 28.5712C3 28.1662 3.32746 27.8379 3.7314 27.8379H11.5408C11.9448 27.8379 12.2722 28.1662 12.2722 28.5712C12.2722 28.9762 11.9448 29.3045 11.5408 29.3045H3.7314C3.32746 29.3045 3 28.9762 3 28.5712ZM52.7278 28.5712C52.7278 28.1662 53.0552 27.8379 53.4592 27.8379H61.2686C61.6725 27.8379 62 28.1662 62 28.5712C62 28.9762 61.6725 29.3045 61.2686 29.3045H53.4592C53.0552 29.3045 52.7278 28.9762 52.7278 28.5712Z" fill="#2B302B"/>
</svg>
