<svg width="20" height="20" viewBox="0 0 20 20" fill="none" xmlns="http://www.w3.org/2000/svg">
    <g clip-path="url(#clip0_7_1500)">
        <path fill-rule="evenodd" clip-rule="evenodd" d="M4.50915 4C3.59686 4 3 4.64813 3 5.49968C3 6.33314 3.57955 7 4.47414 7H4.49145C5.42164 7 6 6.33314 6 5.49968C5.9823 4.64813 5.42164 4 4.50915 4ZM17 12.3969V18H14.0517V12.7724C14.0517 11.4598 13.626 10.5634 12.5585 10.5634C11.7438 10.5634 11.2599 11.1669 11.0462 11.7512C10.9686 11.9601 10.9485 12.2501 10.9485 12.543V17.9998H8C8 17.9998 8.03958 9.14592 8 8.22943H10.9488V9.61397C10.946 9.61909 10.9427 9.62414 10.9394 9.62915C10.9357 9.63482 10.932 9.64042 10.9292 9.64595H10.9488V9.61397C11.3406 8.94968 12.0394 8 13.606 8C15.5457 8 17 9.39642 17 12.3969ZM6 18H3V9H6V18Z" fill="currentColor"/>
        <mask id="mask0_7_1500" style="mask-type:alpha" maskUnits="userSpaceOnUse" x="3" y="4" width="14" height="14">
            <path fill-rule="evenodd" clip-rule="evenodd" d="M4.50915 4C3.59686 4 3 4.64813 3 5.49968C3 6.33314 3.57955 7 4.47414 7H4.49145C5.42164 7 6 6.33314 6 5.49968C5.9823 4.64813 5.42164 4 4.50915 4ZM17 12.3969V18H14.0517V12.7724C14.0517 11.4598 13.626 10.5634 12.5585 10.5634C11.7438 10.5634 11.2599 11.1669 11.0462 11.7512C10.9686 11.9601 10.9485 12.2501 10.9485 12.543V17.9998H8C8 17.9998 8.03958 9.14592 8 8.22943H10.9488V9.61397C10.946 9.61909 10.9427 9.62414 10.9394 9.62915C10.9357 9.63482 10.932 9.64042 10.9292 9.64595H10.9488V9.61397C11.3406 8.94968 12.0394 8 13.606 8C15.5457 8 17 9.39642 17 12.3969ZM6 18H3V9H6V18Z" fill="currentColor"/>
        </mask>
        <g mask="url(#mask0_7_1500)">
            <rect x="-2" y="-2" width="24" height="25" fill="currentColor"/>
        </g>
    </g>
    <defs>
        <clipPath id="clip0_7_1500">
            <rect width="20" height="20" fill="currentColor"/>
        </clipPath>
    </defs>
</svg>
