<svg width="96" height="96" viewBox="0 0 96 96" fill="none" xmlns="http://www.w3.org/2000/svg">
<path d="M71.2916 34.1957H49.0154C48.6747 34.1957 48.3983 34.4689 48.3983 34.8057C48.3983 35.1425 48.6747 35.4157 49.0154 35.4157H71.2915C72.7316 35.4157 73.9033 36.574 73.9033 37.9976V74.6982C73.9033 76.1219 72.7316 77.2801 71.2915 77.2801H40.4929C44.245 75.4025 46.8234 71.5533 46.8234 67.1197V28.8804C46.8234 22.6052 41.659 17.5 35.3109 17.5C28.9629 17.5 23.7985 22.6052 23.7985 28.8804V32.14C23.7985 32.4768 24.0748 32.75 24.4155 32.75C24.7563 32.75 25.0326 32.4768 25.0326 32.14V28.8804C25.0326 23.2779 29.6434 18.72 35.3109 18.72C40.9784 18.72 45.5893 23.2779 45.5893 28.8804V61.9958C45.5857 61.9888 45.5817 61.9819 45.578 61.9749C45.5255 61.8726 45.4713 61.7714 45.4156 61.671C45.4033 61.6486 45.3904 61.6265 45.3778 61.6042C45.3322 61.5231 45.2855 61.4426 45.2379 61.3625C45.2215 61.335 45.2051 61.3074 45.1884 61.2799C45.1287 61.1815 45.0678 61.0836 45.0051 60.9871C45.0016 60.9818 44.9979 60.9764 44.9944 60.971C44.9347 60.8794 44.8733 60.7889 44.811 60.6991C44.7924 60.6723 44.7736 60.6457 44.7548 60.6191C44.7001 60.5416 44.6444 60.4647 44.5877 60.3887C44.5743 60.3707 44.5611 60.3523 44.5475 60.3342C44.4788 60.2429 44.4085 60.153 44.3372 60.0638C44.3192 60.0414 44.3009 60.0193 44.2828 59.9971C44.2253 59.9264 44.1669 59.8564 44.1077 59.7872C44.0878 59.764 44.0682 59.7407 44.048 59.7176C43.973 59.6311 43.8969 59.5456 43.8192 59.4614C43.8082 59.4495 43.7969 59.4377 43.7858 59.4259C43.7177 59.3526 43.6484 59.2804 43.5784 59.2089C43.5555 59.1855 43.5324 59.162 43.5092 59.1388C43.4384 59.0677 43.3667 58.9973 43.2938 58.928C43.2824 58.917 43.2711 58.9058 43.2595 58.8948C43.1762 58.8162 43.0916 58.739 43.006 58.6628C42.9831 58.6423 42.9598 58.6222 42.9366 58.6018C42.8679 58.5417 42.7986 58.4824 42.7286 58.4239C42.7066 58.4055 42.6848 58.387 42.6627 58.3688C42.5743 58.2961 42.485 58.2246 42.3944 58.1546C42.3764 58.1406 42.3581 58.1271 42.34 58.1132C42.2644 58.0555 42.1882 57.9986 42.1112 57.9428C42.0849 57.9236 42.0585 57.9046 42.0319 57.8857C41.9417 57.8214 41.8509 57.7579 41.7587 57.6961C41.7542 57.6931 41.7499 57.69 41.7456 57.687C41.6495 57.6228 41.552 57.5603 41.4538 57.4989C41.4266 57.4818 41.3992 57.465 41.3716 57.4482C41.2919 57.3992 41.2117 57.3512 41.1307 57.3041C41.1086 57.2913 41.0867 57.2781 41.0645 57.2653C40.9644 57.208 40.8633 57.1522 40.7615 57.0978C40.7378 57.0851 40.7138 57.073 40.6901 57.0606C40.6076 57.0173 40.5245 56.9749 40.4408 56.9336C40.4122 56.9194 40.3836 56.9051 40.3547 56.8912C40.2498 56.8405 40.1443 56.7908 40.0376 56.7433C40.0286 56.7392 40.0195 56.7354 40.0105 56.7315C39.9119 56.6877 39.8125 56.6457 39.7126 56.6047C39.6817 56.592 39.6509 56.5795 39.6199 56.5672C39.5284 56.5306 39.4365 56.4951 39.3439 56.4607C39.3244 56.4535 39.305 56.4458 39.2854 56.4387C39.1755 56.3986 39.0645 56.3603 38.9529 56.3234C38.9246 56.3141 38.8959 56.3051 38.8674 56.296C38.7781 56.2672 38.6882 56.2395 38.598 56.2129C38.5685 56.2043 38.5393 56.1953 38.5096 56.1869C38.396 56.1544 38.2817 56.1232 38.1665 56.0941C38.1484 56.0895 38.13 56.0853 38.1119 56.0808C38.0128 56.0561 37.9132 56.0331 37.8131 56.011C37.78 56.0037 37.7469 55.9965 37.7137 55.9895C37.6083 55.9673 37.5026 55.9464 37.3962 55.927C37.3831 55.9245 37.3701 55.9218 37.3569 55.9195C37.2387 55.8984 37.1196 55.8796 37.0001 55.8622C36.9679 55.8575 36.9357 55.8531 36.9034 55.8487C36.8075 55.8356 36.7112 55.8236 36.6145 55.8128C36.5857 55.8096 36.5571 55.806 36.5283 55.803C36.4076 55.7904 36.2864 55.7796 36.1647 55.7707C36.1398 55.7688 36.1146 55.7676 36.0897 55.7659C35.9891 55.7592 35.8883 55.7538 35.7871 55.7498C35.753 55.7485 35.7188 55.747 35.6848 55.7459C35.5606 55.742 35.4361 55.7393 35.3109 55.7393C35.1858 55.7393 35.0614 55.742 34.9371 55.7459C34.9029 55.747 34.8689 55.7483 34.8347 55.7498C34.7335 55.7538 34.6326 55.7592 34.5321 55.7659C34.507 55.7676 34.482 55.7688 34.4569 55.7707C34.3352 55.7796 34.214 55.7903 34.0933 55.803C34.0644 55.806 34.0358 55.8096 34.007 55.8128C33.9104 55.8236 33.8143 55.8356 33.7184 55.8487C33.686 55.8531 33.6537 55.8575 33.6214 55.8622C33.5019 55.8796 33.3829 55.8984 33.2648 55.9194C33.2515 55.9217 33.2383 55.9245 33.2248 55.927C33.1187 55.9462 33.0132 55.9672 32.908 55.9893C32.8747 55.9964 32.8415 56.0036 32.8083 56.0109C32.7085 56.0328 32.609 56.056 32.5101 56.0805C32.4917 56.0851 32.4732 56.0893 32.4548 56.094C32.3399 56.1231 32.2258 56.1542 32.1122 56.1867C32.0825 56.1952 32.0529 56.2041 32.0231 56.2129C31.9332 56.2395 31.8437 56.2671 31.7547 56.2956C31.726 56.3049 31.6971 56.3139 31.6683 56.3234C31.5569 56.3603 31.4462 56.3985 31.3363 56.4386C31.3165 56.4458 31.2968 56.4536 31.2771 56.4609C31.1848 56.4952 31.0931 56.5306 31.0019 56.5671C30.9708 56.5795 30.9398 56.592 30.9088 56.6048C30.8092 56.6457 30.7101 56.6877 30.6119 56.7313C30.6025 56.7354 30.593 56.7393 30.5836 56.7435C30.4771 56.7911 30.3718 56.8406 30.2672 56.8912C30.2381 56.9053 30.2092 56.9197 30.1802 56.9341C30.0967 56.9753 30.0141 57.0174 29.9319 57.0606C29.9079 57.0731 29.8837 57.0855 29.8599 57.0982C29.7581 57.1524 29.6573 57.2082 29.5573 57.2654C29.5347 57.2783 29.5125 57.2916 29.49 57.3047C29.4094 57.3515 29.3296 57.3994 29.2502 57.448C29.2226 57.4651 29.1948 57.4821 29.1673 57.4993C29.0694 57.5607 28.9722 57.6229 28.8762 57.687C28.871 57.6905 28.8659 57.6941 28.8607 57.6977C28.7694 57.7589 28.6792 57.8219 28.5898 57.8857C28.5631 57.9048 28.5364 57.9241 28.5099 57.9434C28.4332 57.999 28.3572 58.0556 28.282 58.1131C28.2638 58.1271 28.2451 58.1408 28.227 58.1548C28.1366 58.2247 28.0474 58.2961 27.9592 58.3687C27.9367 58.3871 27.9146 58.406 27.8923 58.4245C27.8226 58.4828 27.7534 58.5419 27.6851 58.6017C27.6619 58.6221 27.6384 58.6423 27.6153 58.6628C27.5298 58.7389 27.4451 58.816 27.362 58.8946C27.3502 58.9057 27.3388 58.9172 27.327 58.9284C27.2545 58.9976 27.1829 59.0677 27.1122 59.1386C27.089 59.1619 27.0659 59.1852 27.0429 59.2086C26.9731 59.2799 26.9041 59.3521 26.8361 59.4252C26.8247 59.4373 26.8133 59.4492 26.802 59.4614C26.7245 59.5455 26.6485 59.631 26.5735 59.7175C26.5533 59.7407 26.5336 59.764 26.5137 59.7874C26.4546 59.8564 26.3965 59.9264 26.3391 59.9969C26.3208 60.0193 26.3023 60.0416 26.2842 60.0642C26.2127 60.1533 26.1426 60.2433 26.0739 60.3344C26.0604 60.3523 26.0473 60.3704 26.034 60.3884C25.9772 60.4646 25.9216 60.5415 25.8667 60.6191C25.8479 60.6457 25.829 60.6724 25.8105 60.6991C25.7481 60.7891 25.6865 60.8799 25.6265 60.9719C25.6232 60.977 25.6197 60.9819 25.6164 60.987C25.5537 61.0836 25.4928 61.1815 25.433 61.2801C25.4163 61.3074 25.4 61.3348 25.3837 61.3623C25.336 61.4424 25.2891 61.5233 25.2433 61.6047C25.2309 61.6267 25.2182 61.6485 25.206 61.6706C25.1504 61.7711 25.0962 61.8725 25.0435 61.9749C25.0399 61.9819 25.0359 61.9888 25.0322 61.9958V37.386C25.0322 37.0492 24.7559 36.776 24.4152 36.776C24.0744 36.776 23.7981 37.0492 23.7981 37.386V67.1196C23.7981 71.5533 26.3765 75.4024 30.1286 77.28H24.4155C24.0748 77.28 23.7985 77.5532 23.7985 77.89C23.7985 78.2268 24.0748 78.5 24.4155 78.5H35.3109H35.3114H71.2915C73.4123 78.5 75.1375 76.7946 75.1375 74.6981V37.9976C75.1376 35.9013 73.4123 34.1957 71.2916 34.1957ZM25.0326 67.1196C25.0326 61.5171 29.6434 56.9592 35.3109 56.9592C40.9784 56.9592 45.5893 61.5171 45.5893 67.1196C45.5893 72.7221 40.9784 77.28 35.3109 77.28C29.6434 77.28 25.0326 72.7221 25.0326 67.1196ZM51.8785 28.1546C51.8785 27.8178 52.1549 27.5446 52.4956 27.5446H53.2155V26.833C53.2155 26.4962 53.4918 26.223 53.8326 26.223C54.1733 26.223 54.4497 26.4962 54.4497 26.833V27.5446H55.1695C55.5103 27.5446 55.7866 27.8178 55.7866 28.1546C55.7866 28.4915 55.5103 28.7646 55.1695 28.7646H54.4497V29.4763C54.4497 29.8131 54.1733 30.0863 53.8326 30.0863C53.4918 30.0863 53.2155 29.8131 53.2155 29.4763V28.7646H52.4956C52.1549 28.7646 51.8785 28.4916 51.8785 28.1546ZM51.8785 22.2986C51.8785 21.9618 52.1549 21.6886 52.4956 21.6886H53.2155V20.977C53.2155 20.6402 53.4918 20.367 53.8326 20.367C54.1733 20.367 54.4497 20.6402 54.4497 20.977V21.6886H55.1695C55.5103 21.6886 55.7866 21.9618 55.7866 22.2986C55.7866 22.6355 55.5103 22.9086 55.1695 22.9086H54.4497V23.6203C54.4497 23.9571 54.1733 24.2303 53.8326 24.2303C53.4918 24.2303 53.2155 23.9571 53.2155 23.6203V22.9086H52.4956C52.1549 22.9086 51.8785 22.6356 51.8785 22.2986ZM35.3109 59.8194C31.2388 59.8194 27.926 63.0942 27.926 67.1195C27.926 71.1447 31.2388 74.4197 35.3109 74.4197C39.383 74.4197 42.6959 71.1449 42.6959 67.1195C42.6959 63.0941 39.383 59.8194 35.3109 59.8194ZM35.3109 73.1998C31.9195 73.1998 29.1601 70.4723 29.1601 67.1196C29.1601 63.7669 31.9193 61.0395 35.3109 61.0395C38.7025 61.0395 41.4617 63.767 41.4617 67.1196C41.4617 70.4722 38.7024 73.1998 35.3109 73.1998ZM35.3109 63.5656C33.3285 63.5656 31.7158 65.1599 31.7158 67.1195C31.7158 69.0792 33.3286 70.6735 35.3109 70.6735C37.2934 70.6735 38.9062 69.0792 38.9062 67.1195C38.9062 65.1599 37.2934 63.5656 35.3109 63.5656ZM35.3109 69.4536C34.0091 69.4536 32.95 68.4066 32.95 67.1196C32.95 65.8327 34.0091 64.7857 35.3109 64.7857C36.6129 64.7857 37.672 65.8327 37.672 67.1196C37.672 68.4066 36.6129 69.4536 35.3109 69.4536ZM23.7985 35.312V34.336C23.7985 33.9992 24.0748 33.726 24.4155 33.726C24.7563 33.726 25.0326 33.9992 25.0326 34.336V35.312C25.0326 35.6488 24.7563 35.922 24.4155 35.922C24.0748 35.922 23.7985 35.6488 23.7985 35.312ZM22.8925 77.89C22.8925 78.2268 22.6161 78.5 22.2754 78.5H21.6171C21.2763 78.5 21 78.2268 21 77.89C21 77.5532 21.2763 77.28 21.6171 77.28H22.2753C22.6161 77.28 22.8925 77.5532 22.8925 77.89Z" fill="#C9EDB9"/>
<path d="M1 30C1 13.9837 13.9837 1 30 1H95V66C95 82.0163 82.0163 95 66 95H1V30Z" stroke="#C9EDB9" stroke-width="2"/>
</svg>
