<svg width="96" height="96" viewBox="0 0 96 96" fill="none" xmlns="http://www.w3.org/2000/svg">
<path d="M47.1214 29.4388C47.1214 29.0995 47.3898 28.8329 47.7314 28.8329H48.4634V28.1059C48.4634 27.7666 48.7318 27.5 49.0734 27.5C49.415 27.5 49.6834 27.7666 49.6834 28.1059V28.8329H50.4154C50.757 28.8329 51.0254 29.0995 51.0254 29.4388C51.0254 29.7781 50.757 30.0447 50.4154 30.0447H49.6834V30.7718C49.6834 31.111 49.415 31.3776 49.0734 31.3776C48.7318 31.3776 48.4634 31.111 48.4634 30.7718V30.0447H47.7314C47.3898 30.0447 47.1214 29.766 47.1214 29.4388ZM59.3458 36.7215H60.0778V37.4486C60.0778 37.7878 60.3462 38.0544 60.6878 38.0544C61.0294 38.0544 61.2978 37.7878 61.2978 37.4486V36.7215H62.0298C62.3714 36.7215 62.6398 36.4549 62.6398 36.1156C62.6398 35.7763 62.3714 35.5097 62.0298 35.5097H61.2978V34.7827C61.2978 34.4434 61.0294 34.1768 60.6878 34.1768C60.3462 34.1768 60.0778 34.4434 60.0778 34.7827V35.5097H59.3458C59.0042 35.5097 58.7358 35.7763 58.7358 36.1156C58.7358 36.4549 59.0164 36.7215 59.3458 36.7215ZM59.3458 42.9015H60.0778V43.6285C60.0778 43.9678 60.3462 44.2344 60.6878 44.2344C61.0294 44.2344 61.2978 43.9678 61.2978 43.6285V42.9015H62.0298C62.3714 42.9015 62.6398 42.6349 62.6398 42.2956C62.6398 41.9563 62.3714 41.6897 62.0298 41.6897H61.2978V40.9627C61.2978 40.6234 61.0294 40.3568 60.6878 40.3568C60.3462 40.3568 60.0778 40.6234 60.0778 40.9627V41.6897H59.3458C59.0042 41.6897 58.7358 41.9563 58.7358 42.2956C58.7358 42.6349 59.0164 42.9015 59.3458 42.9015ZM29.407 50.1357C29.5412 50.1357 29.6754 50.0872 29.7974 50.0024L30.2244 49.6631C30.4806 49.4571 30.5294 49.0693 30.3098 48.8149C30.0902 48.5604 29.712 48.5119 29.4558 48.73L29.0288 49.0693C28.7726 49.2753 28.7238 49.6631 28.9434 49.9176C29.0532 50.0509 29.2362 50.1357 29.407 50.1357ZM20.3668 66.9549H20.0252C19.6836 66.9549 19.4152 67.2215 19.4152 67.5608C19.4152 67.9001 19.6836 68.1667 20.0252 68.1667H20.3668C20.7084 68.1667 20.9768 67.9001 20.9768 67.5608C20.9768 67.2215 20.6962 66.9549 20.3668 66.9549ZM52.8066 43.3377C52.9164 43.3377 53.0262 43.3135 53.1238 43.2529L53.2824 43.1559C53.5752 42.9863 53.6606 42.6107 53.4898 42.3198C53.319 42.029 52.9408 41.9442 52.648 42.1138L52.4894 42.2108C52.1966 42.3804 52.1112 42.7561 52.282 43.0469C52.3918 43.2286 52.5992 43.3377 52.8066 43.3377ZM76.0476 67.5608C76.0476 67.9001 75.7792 68.1667 75.4376 68.1667H70.4966H53.3434H49.9396C48.2438 68.1667 46.6944 67.2821 45.816 65.8886C44.5716 67.2821 42.7538 68.1667 40.7408 68.1667H22.5018C22.1602 68.1667 21.8918 67.9001 21.8918 67.5608C21.8918 67.2215 22.1602 66.9549 22.5018 66.9549H36.849C35.0922 65.731 33.9332 63.7074 33.9332 61.4293C33.9332 57.7092 36.9832 54.6919 40.7164 54.6919C44.4496 54.6919 47.4996 57.7213 47.4996 61.4293C47.4996 62.6532 47.1702 63.8043 46.5846 64.798C47.158 66.0946 48.4634 66.9549 49.9152 66.9549H51.0498C51.0376 66.9307 51.0132 66.9064 51.001 66.8701C51.001 66.858 50.9888 66.858 50.9888 66.8459C50.9278 66.7368 50.8668 66.6277 50.818 66.5066V66.4944C50.7936 66.4217 50.757 66.349 50.7448 66.2763C50.7448 66.2642 50.7326 66.2521 50.7326 66.2279C50.7204 66.1915 50.7082 66.1552 50.7082 66.1188C50.696 66.0703 50.6838 66.0219 50.6716 65.9855C50.6716 65.9613 50.6594 65.937 50.6594 65.9007C50.6472 65.8643 50.6472 65.828 50.6472 65.7795C50.6472 65.7553 50.6472 65.7432 50.635 65.7189C50.6228 65.6583 50.6228 65.5977 50.6228 65.5372C50.6228 65.525 50.6228 65.5008 50.6228 65.4887C50.6228 65.4644 50.6228 65.4523 50.6228 65.4281C50.6228 65.3917 50.6228 65.3554 50.6228 65.3069V65.2948C50.6228 65.21 50.635 65.1252 50.6472 65.0403V65.0282C50.6594 64.9434 50.6716 64.8586 50.696 64.7737C50.696 64.7737 50.696 64.7737 50.696 64.7616C50.9888 63.5862 52.0624 62.7137 53.3434 62.7137C53.3556 62.7137 53.3678 62.7137 53.3678 62.7137C53.38 62.7137 53.3922 62.7137 53.3922 62.7137H54.9294V45.6522L47.524 50.1842V51.6989C47.524 53.0681 47.3654 54.4374 47.0482 55.7704C46.975 56.0975 46.6456 56.3035 46.3162 56.2187C45.9868 56.146 45.7794 55.8188 45.8648 55.4917C46.1576 54.2435 46.304 52.9712 46.304 51.6867V49.8327V47.3244L22.4042 61.8049C21.9406 62.0836 21.416 62.229 20.9036 62.229C20.4156 62.229 19.9276 62.1079 19.4884 61.8534C18.549 61.3445 18 60.4114 18 59.3572C18 58.5089 18.366 57.7213 19.0126 57.1639C19.0126 57.1639 19.0248 57.1639 19.0248 57.1518L27.4794 50.2932C27.7356 50.0872 28.126 50.1236 28.3334 50.378C28.5408 50.6325 28.5042 51.0203 28.248 51.2263L21.782 56.4611L24.0512 59.3693L46.5724 45.7249L50.8912 43.1438C51.184 42.9742 51.55 43.059 51.733 43.3498C51.9038 43.6406 51.8184 44.0042 51.5256 44.1859L47.524 46.5973V48.7664L47.9388 48.5119L54.9416 44.2708V40.2114C54.9416 38.5997 54.0388 37.1577 52.5992 36.4428C49.72 35.0129 46.365 36.4791 44.1812 38.3331C44.1812 38.3331 44.169 38.3331 44.169 38.3453L31.7006 48.4513C31.4444 48.6573 31.054 48.621 30.8466 48.3665C30.6392 48.112 30.6758 47.7243 30.932 47.5183L43.3882 37.4122C45.8648 35.3159 49.7322 33.68 53.136 35.3643C55.0026 36.2853 56.1616 38.1393 56.1616 40.2114V44.6101V62.7501H70.4966C71.9972 62.7501 73.2172 63.9619 73.2172 65.4523C73.2172 66.0097 73.0464 66.5187 72.7658 66.9428H75.4376C75.7792 66.9549 76.0476 67.2215 76.0476 67.5608ZM23.0142 60.0236L20.8426 57.2487L19.8056 58.0969C19.4396 58.412 19.22 58.8725 19.22 59.3572C19.22 59.9631 19.5372 60.5084 20.074 60.8113C20.6108 61.1142 21.2452 61.1021 21.7698 60.7749L23.0142 60.0236ZM46.304 61.4293C46.304 58.3757 43.803 55.9037 40.7408 55.9037C37.6786 55.9037 35.1776 58.3878 35.1776 61.4293C35.1776 64.4708 37.6786 66.9549 40.7408 66.9549C43.803 66.9549 46.304 64.4708 46.304 61.4293ZM53.4044 63.9619C52.6846 63.9619 52.0502 64.4466 51.8916 65.1009C51.8794 65.1373 51.8794 65.1736 51.8672 65.21C51.8672 65.2342 51.855 65.2463 51.855 65.2706C51.855 65.2948 51.855 65.319 51.8428 65.3433C51.8428 65.3675 51.8428 65.3917 51.8428 65.416C51.8428 65.4402 51.8428 65.4644 51.8428 65.4887C51.8428 65.5129 51.8428 65.5372 51.8428 65.5614C51.8428 65.5856 51.8428 65.6099 51.855 65.6341C51.855 65.6583 51.8672 65.6947 51.8672 65.7189C51.8672 65.7432 51.8794 65.7553 51.8794 65.7795C51.8916 65.8159 51.8916 65.8401 51.9038 65.8764C51.9038 65.8886 51.916 65.9128 51.916 65.9249C51.9282 65.9613 51.9404 65.9855 51.9526 66.0219C51.9526 66.034 51.9648 66.0461 51.9648 66.0582C51.977 66.0946 52.0014 66.1188 52.0136 66.1552C52.0136 66.1673 52.0258 66.1794 52.0258 66.1915C52.038 66.2279 52.0624 66.2521 52.0868 66.2884C52.099 66.3006 52.099 66.3127 52.1112 66.3248C52.1356 66.349 52.1478 66.3854 52.1722 66.4096C52.1844 66.4217 52.1966 66.4339 52.1966 66.446C52.221 66.4702 52.2454 66.4944 52.2698 66.5187C52.282 66.5308 52.2942 66.5429 52.2942 66.5429C52.3186 66.5672 52.343 66.5914 52.3796 66.6156C52.3796 66.6156 52.3918 66.6156 52.3918 66.6277C52.648 66.8337 52.9774 66.967 53.3434 66.967H70.4966C71.3262 66.967 71.9972 66.3006 71.9972 65.4766C71.9972 64.6526 71.3262 63.9861 70.4966 63.9861H55.5516L53.4044 63.9619ZM78.39 66.9549H77.8288C77.4872 66.9549 77.2188 67.2215 77.2188 67.5608C77.2188 67.9001 77.4872 68.1667 77.8288 68.1667H78.39C78.7316 68.1667 79 67.9001 79 67.5608C79 67.2215 78.7316 66.9549 78.39 66.9549Z" fill="#C9EDB9"/>
<path d="M1 30C1 13.9837 13.9837 1 30 1H95V66C95 82.0163 82.0163 95 66 95H1V30Z" stroke="#C9EDB9" stroke-width="2"/>
</svg>
