<svg width="96" height="96" viewBox="0 0 96 96" fill="none" xmlns="http://www.w3.org/2000/svg">
<path d="M38.959 31.4397C38.959 31.1044 39.2321 30.8326 39.569 30.8326H40.2979V30.1071C40.2979 29.7717 40.5711 29.5 40.9079 29.5C41.2448 29.5 41.5179 29.7717 41.5179 30.1071V30.8326H42.2468C42.5836 30.8326 42.8568 31.1044 42.8568 31.4397C42.8568 31.7751 42.5836 32.0468 42.2468 32.0468H41.5179V32.7723C41.5179 33.1077 41.2448 33.3794 40.9079 33.3794C40.5711 33.3794 40.2979 33.1077 40.2979 32.7723V32.0468H39.569C39.2321 32.0468 38.959 31.775 38.959 31.4397ZM33.3486 32.0468H34.0775V32.7723C34.0775 33.1077 34.3507 33.3794 34.6875 33.3794C35.0244 33.3794 35.2975 33.1077 35.2975 32.7723V32.0468H36.0265C36.3633 32.0468 36.6365 31.7751 36.6365 31.4397C36.6365 31.1044 36.3633 30.8326 36.0265 30.8326H35.2975V30.1071C35.2975 29.7717 35.0244 29.5 34.6875 29.5C34.3507 29.5 34.0775 29.7717 34.0775 30.1071V30.8326H33.3486C33.0117 30.8326 32.7386 31.1044 32.7386 31.4397C32.7386 31.7751 33.0116 32.0468 33.3486 32.0468ZM35.9433 60.9591H35.5763C35.2395 60.9591 34.9663 61.2309 34.9663 61.5663C34.9663 61.9016 35.2395 62.1734 35.5763 62.1734H35.9433C36.2801 62.1734 36.5533 61.9016 36.5533 61.5663C36.5533 61.2309 36.2801 60.9591 35.9433 60.9591ZM19.0562 65.7754H18.61C18.2732 65.7754 18 66.0471 18 66.3825C18 66.7178 18.2732 66.9896 18.61 66.9896H19.0562C19.393 66.9896 19.6662 66.7178 19.6662 66.3825C19.6662 66.0471 19.393 65.7754 19.0562 65.7754ZM76.24 66.3825C76.24 66.7178 75.967 66.9896 75.63 66.9896H69.7208H30.5279H21.3361C20.9992 66.9896 20.7261 66.7178 20.7261 66.3825C20.7261 66.0471 20.9992 65.7754 21.3361 65.7754H27.5843C26.8283 65.024 26.3598 63.9861 26.3598 62.8412V58.7204V57.2366C26.3598 53.035 29.7942 49.617 34.0157 49.617H42.4409C43.3567 49.617 44.2348 49.8522 45.0134 50.3017C46.2885 48.616 48.3152 47.5237 50.5938 47.5237C54.4435 47.5237 57.5755 50.6408 57.5755 54.4723C57.5755 55.0455 57.5049 55.6155 57.366 56.1665C57.2964 56.4421 57.0479 56.6258 56.7748 56.6258C56.7256 56.6258 56.6756 56.6199 56.6257 56.6075C56.299 56.5258 56.1006 56.196 56.1826 55.8708C56.2971 55.4165 56.3553 54.946 56.3553 54.4723C56.3553 51.3103 53.7706 48.7379 50.5936 48.7379C47.4166 48.7379 44.8319 51.3103 44.8319 54.4723C44.8319 54.7563 44.8555 55.0452 44.8995 55.3333L47.2174 57.6402C47.2516 57.6741 47.2989 57.6936 47.3475 57.6936H63.3878C64.6363 57.6936 65.6702 58.6798 65.6924 59.892C65.6993 60.2691 65.6132 60.6331 65.4445 60.9585L66.8633 60.9581C66.8669 60.9581 66.87 60.9571 66.8736 60.9571C66.8771 60.9571 66.8803 60.9581 66.8838 60.9581L70.2799 60.9571C71.3994 60.9571 72.7513 62.3026 72.7513 63.9735C72.7513 64.6484 72.5273 65.2723 72.1495 65.7755H75.6298C75.967 65.7754 76.24 66.0471 76.24 66.3825ZM42.3819 54.5444C42.049 54.2131 41.586 54.0238 41.1095 54.0238C41.1039 54.0238 41.0983 54.0239 41.0926 54.0239C40.6305 54.0281 40.2061 54.2063 39.8975 54.5251C39.2558 55.1882 39.2662 56.2574 39.9205 56.9087L43.2301 60.2027C43.7203 60.6906 44.372 60.9591 45.0652 60.9591H63.212H63.4438C63.7221 60.9588 63.9828 60.8497 64.1779 60.652C64.3732 60.454 64.4779 60.192 64.4727 59.9142C64.4626 59.3593 63.9759 58.9078 63.3879 58.9078H47.3476C46.9727 58.9078 46.6201 58.7626 46.355 58.4988L42.3819 54.5444ZM27.5798 58.1131H39.4055L39.0578 57.7671C37.9366 56.6512 37.9192 54.8189 39.0188 53.6826C39.5564 53.1271 40.2888 52.8169 41.0811 52.8095C41.0905 52.8095 41.0997 52.8094 41.1091 52.8094C41.9071 52.8094 42.684 53.1279 43.2445 53.6858L43.625 54.0646C43.6821 53.0872 43.9437 52.1643 44.3668 51.3357C43.7819 51.0059 43.1259 50.8311 42.4409 50.8311H34.0157C30.4669 50.8311 27.5798 53.7045 27.5798 57.2365V58.1131ZM66.2637 62.1724L63.4438 62.1732H63.4423H45.0653C44.0461 62.1732 43.088 61.7783 42.3674 61.061L40.6255 59.3274H27.5798V60.959H33.3176C33.6544 60.959 33.9276 61.2308 33.9276 61.5661C33.9276 61.9015 33.6544 62.1732 33.3176 62.1732H27.5798V62.8411C27.5798 64.4589 28.9023 65.7752 30.5279 65.7752H66.2637V62.1724ZM71.5314 63.9733C71.5314 62.9502 70.6975 62.1712 70.2803 62.1712L67.4837 62.172V65.7754H69.7208C70.7193 65.7754 71.5314 64.9671 71.5314 63.9733ZM78.39 65.7754H77.9155C77.5786 65.7754 77.3055 66.0471 77.3055 66.3825C77.3055 66.7178 77.5786 66.9896 77.9155 66.9896H78.39C78.727 66.9896 79 66.7178 79 66.3825C79 66.0471 78.727 65.7754 78.39 65.7754Z" fill="#C9EDB9"/>
<path d="M30 1H95V66C95 82.0163 82.0163 95 66 95H1V30C1 13.9837 13.9837 1 30 1Z" stroke="#C9EDB9" stroke-width="2"/>
</svg>
