<svg width="66" height="66" viewBox="0 0 66 66" fill="none" xmlns="http://www.w3.org/2000/svg">
<g clip-path="url(#clip0_291_1223)">
<path fill-rule="evenodd" clip-rule="evenodd" d="M19.0737 24.1387C19.4688 24.1387 19.7891 24.459 19.7891 24.8541V29.5C20.0314 29.1587 20.2851 28.8046 20.5542 28.4612C21.301 27.5084 22.2142 26.5747 23.584 25.9273C26.188 24.6966 28.3361 24.9468 30.7563 25.2925C30.9626 25.322 31.1459 25.44 31.258 25.6157C31.3702 25.7914 31.4002 26.0073 31.3401 26.2069L30.6551 26.0007C31.3401 26.2069 31.3401 26.2069 31.3401 26.2069L31.3383 26.2131L31.334 26.227L31.3184 26.277C31.3048 26.3199 31.2849 26.3816 31.2588 26.4598C31.2067 26.616 31.1295 26.8385 31.0281 27.1082C30.8257 27.6464 30.5242 28.3791 30.1284 29.1528C29.7338 29.9241 29.2369 30.7533 28.6392 31.4749C28.0453 32.1919 27.3191 32.8425 26.4555 33.1982C24.9299 33.8266 22.9502 33.5376 21.4846 33.172C20.8335 33.0097 20.2465 32.8221 19.7891 32.6613V37.7521C22.2573 35.9911 24.5041 35.05 26.601 34.9182C29.0566 34.7638 31.1862 35.7255 33.0945 37.5196C33.7602 38.1454 34.2988 38.674 34.7346 39.1209C34.623 38.4818 34.4978 37.7686 34.3653 37.0186C33.8874 34.3134 33.3154 31.1391 32.9349 29.2371C32.8828 28.9763 32.9796 28.7081 33.1863 28.5407C34.5208 27.4604 36.5153 26.7283 38.724 26.2679C40.9502 25.8039 43.4721 25.6002 45.9287 25.6294C48.3844 25.6585 50.8003 25.9206 52.814 26.4014C54.7876 26.8726 56.5165 27.5858 57.4456 28.6182C57.601 28.7908 57.6629 29.0281 57.6117 29.2546L52.3327 52.5865C53.9301 53.6899 54.917 55.2393 55.3701 57.3275L62.1218 52.5912C62.4452 52.3643 62.8914 52.4426 63.1183 52.766C63.3452 53.0895 63.2669 53.5356 62.9434 53.7625L57.1154 57.8508H65.2846C65.6797 57.8508 66 58.1711 66 58.5662C66 58.9613 65.6797 59.2816 65.2846 59.2816H56.577L61.4331 64.1377C61.7125 64.4171 61.7125 64.8701 61.4331 65.1495C61.1537 65.4288 60.7008 65.4288 60.4214 65.1495L55.2024 59.9305C54.0495 62.98 51.1215 64.6005 47.7357 65.3812C43.9136 66.2625 39.29 66.138 35.2786 65.6987C32.5447 65.3994 29.5043 64.7331 26.8171 63.771C26.7649 63.804 26.7081 63.8395 26.6471 63.8772C26.3027 64.0901 25.8221 64.3731 25.2794 64.652C24.7389 64.9298 24.1234 65.2105 23.5111 65.4122C22.9107 65.6101 22.2531 65.7527 21.6492 65.7003C20.9899 65.6431 20.245 65.3763 19.7105 65.1542C19.4476 65.045 19.2177 64.9388 19.0484 64.8573C19.0244 64.867 18.9994 64.8771 18.9731 64.8876C18.7336 64.9832 18.3981 65.1101 18.0132 65.235C17.2677 65.4769 16.2461 65.7427 15.3713 65.7022C13.7388 65.6267 12.7376 65.0239 11.6079 64.3437C11.4205 64.2308 11.2295 64.1159 11.0315 64.0008C7.98336 62.2293 6.72933 60.2082 5.07087 57.5354C4.91564 57.2852 4.75687 57.0293 4.59275 56.7674C2.87017 54.0183 1.36725 52.785 0.732796 49.4771C0.685291 49.2294 0.637193 48.9873 0.589967 48.7496C0.136063 46.4647 0.200988 44.0627 1.21003 41.5575C1.62801 40.5198 2.47213 39.4401 3.16211 38.6568C3.51501 38.2561 3.84336 37.9155 4.08366 37.6748C4.204 37.5543 4.30273 37.4584 4.372 37.392C4.40666 37.3588 4.43398 37.333 4.45298 37.3151L4.47515 37.2944L4.48134 37.2886L4.48317 37.2869L4.48398 37.2862C4.48398 37.2862 4.48415 37.286 4.96963 37.8115L4.48398 37.2862C4.51005 37.2621 4.53804 37.2398 4.56739 37.2199C7.72906 35.0702 10.2875 34.2533 12.7209 34.638C14.7025 34.9512 16.4897 36.0478 18.3583 37.6099V24.8541C18.3583 24.459 18.6786 24.1387 19.0737 24.1387ZM5.41784 38.3719C5.40316 38.3857 5.38438 38.4036 5.36186 38.4252C5.29938 38.485 5.20824 38.5735 5.0961 38.6858C4.87146 38.9108 4.56447 39.2293 4.23581 39.6024C3.56268 40.3667 2.85879 41.2937 2.5372 42.0921C1.69301 44.188 1.54498 46.1864 2 48.5C2.04471 48.7273 2.091 48.9627 2.13797 49.2076C2.71971 52.2406 4.09961 53.2857 5.80519 56.0077C5.96605 56.2645 6.12055 56.513 6.27029 56.7538C7.94171 59.4423 9.02021 61.177 11.7505 62.7637C11.9774 62.8956 12.1859 63.0201 12.3811 63.1368C13.5004 63.8053 14.1865 64.2151 15.4374 64.273C16.0381 64.3008 16.8512 64.1079 17.5715 63.8741C17.9195 63.7611 18.2247 63.6458 18.4426 63.5588C18.5513 63.5154 18.6376 63.4793 18.6959 63.4544C18.725 63.442 18.7471 63.4324 18.7615 63.4261L18.7771 63.4192L18.7804 63.4178C18.9817 63.3274 19.2138 63.3348 19.4088 63.4382L19.4111 63.4394L19.4217 63.445L19.4673 63.4684C19.5079 63.4891 19.5684 63.5195 19.6448 63.5565C19.7981 63.6307 20.0132 63.7306 20.2595 63.833C20.772 64.0459 21.3458 64.2378 21.7729 64.2749C22.0933 64.3027 22.5349 64.2275 23.0633 64.0533C23.5799 63.8831 24.1229 63.6377 24.6254 63.3795C24.8024 63.2885 24.9728 63.1968 25.1333 63.1074C25.0421 63.0678 24.9516 63.0279 24.8617 62.9875C23.3186 62.2952 21.9434 61.4784 20.9321 60.5425C19.9238 59.6093 19.2131 58.4952 19.1616 57.2191C19.1589 57.1529 19.1654 57.0867 19.181 57.0224C19.5393 55.5378 20.4811 54.3647 22.0477 53.4213C23.5896 52.4929 25.7655 51.7676 28.6715 51.1491C30.4133 50.7784 32.4347 50.4426 34.7647 50.1263C34.7823 50.0517 34.802 49.9714 34.8234 49.8871C34.9266 49.4818 35.0833 48.9394 35.2822 48.5156C35.7748 47.4661 35.8869 45.9093 35.798 44.5232C35.7545 43.8437 35.665 43.2415 35.5665 42.8105C35.5166 42.5924 35.4687 42.4373 35.4312 42.3442C35.4297 42.3404 35.4282 42.3369 35.4269 42.3336C35.3222 42.2301 35.2504 42.0952 35.2247 41.9459L35.2244 41.9443L35.2155 41.892C35.1894 41.8443 35.1374 41.7582 35.0396 41.624C34.6985 41.1562 33.9063 40.2467 32.1144 38.562C30.4213 36.9702 28.6619 36.2222 26.6908 36.3461C24.6848 36.4722 22.3408 37.5077 19.5184 39.7478C19.2437 39.9659 18.8513 39.9526 18.592 39.7164C16.2926 37.622 14.4483 36.3595 12.4975 36.0512C10.5898 35.7497 8.41825 36.3408 5.41784 38.3719ZM36.6021 41.5041C36.6048 41.5082 36.6073 41.5121 36.6097 41.5157C36.6722 41.6117 36.7205 41.7157 36.7583 41.8095C36.835 41.9998 36.9027 42.2355 36.9613 42.4916C37.0796 43.0091 37.1783 43.6887 37.2259 44.4317C37.3194 45.8907 37.2257 47.7422 36.5774 49.1235C36.4605 49.3725 36.3495 49.7202 36.258 50.0572C39.3527 50.0748 42.0517 50.142 44.3648 50.3507C47.0491 50.593 49.2798 51.0302 51.0329 51.8479L55.8617 30.5055C52.6281 32.0857 48.4824 32.7257 44.5733 32.65C40.848 32.5779 37.1961 31.8525 34.6472 30.5543C34.9953 32.3967 35.4126 34.7226 35.7743 36.7697C36.0133 38.1227 36.2285 39.3561 36.3838 40.2512C36.4615 40.6988 36.5243 41.0619 36.5676 41.3131L36.5987 41.4937C36.5998 41.4971 36.601 41.5006 36.6021 41.5041ZM34.9305 29.0837C37.1793 30.349 40.755 31.1451 44.601 31.2195C48.5764 31.2965 52.6698 30.5983 55.6689 28.9976C54.9366 28.5369 53.8552 28.121 52.4818 27.7931C50.5932 27.3422 48.2863 27.0883 45.9117 27.0601C43.5379 27.0319 41.1219 27.2296 39.0159 27.6686C37.3817 28.0092 35.9793 28.486 34.9305 29.0837ZM51.142 53.5213C49.7082 52.6646 47.7073 52.1488 45.0159 51.8535V55.5849C45.0159 55.98 44.6956 56.3003 44.3005 56.3003C43.9054 56.3003 43.5851 55.98 43.5851 55.5849V51.7215C41.6377 51.5725 39.4084 51.513 36.8745 51.4923V55.5849C36.8745 55.98 36.5542 56.3003 36.1591 56.3003C35.764 56.3003 35.4437 55.98 35.4437 55.5849V51.4845C35.43 51.4845 35.4163 51.4844 35.4026 51.4844C33.1607 51.7814 31.2154 52.0929 29.5358 52.4313V55.5849C29.5358 55.98 29.2155 56.3003 28.8204 56.3003C28.4253 56.3003 28.105 55.98 28.105 55.5849V52.741C25.7078 53.3 23.9845 53.9252 22.7858 54.647C21.5147 55.4124 20.8644 56.2656 20.5973 57.2583C20.6587 57.982 21.0825 58.7322 21.9039 59.4924C22.7592 60.2839 23.9821 61.0247 25.4474 61.6821C25.8592 61.8669 26.2872 62.0438 26.7281 62.2125C26.948 62.1881 27.1731 62.2668 27.3298 62.4348C29.8867 63.3471 32.8028 63.9883 35.4343 64.2765C39.3904 64.7096 43.8255 64.8145 47.4142 63.987C50.9683 63.1675 53.481 61.496 54.1255 58.5356C53.8292 56.1975 52.9389 54.7121 51.4382 53.7085C51.3512 53.6503 51.2618 53.5936 51.1702 53.5382C51.1606 53.5328 51.1513 53.5272 51.142 53.5213ZM20.2488 31.3063C20.6761 31.4569 21.2251 31.6327 21.8309 31.7838C23.2729 32.1435 24.8478 32.3131 25.9106 31.8753C26.4769 31.6421 27.0246 31.1812 27.5373 30.5622C28.0462 29.9479 28.4886 29.2167 28.8546 28.5012C29.2193 27.7882 29.4996 27.1077 29.6889 26.6045C29.6905 26.6002 29.6921 26.5959 29.6937 26.5916C27.7145 26.3405 26.1157 26.3133 24.1954 27.2209C23.1026 27.7374 22.3531 28.4854 21.6803 29.3439C21.4063 29.6933 21.1528 30.0506 20.8895 30.4218C20.8241 30.5139 20.7581 30.6069 20.6911 30.7009C20.5482 30.9011 20.4015 31.104 20.2488 31.3063ZM6.5851 48.1868C6.93454 48.0024 7.36729 48.1362 7.55168 48.4857C7.94964 49.2398 8.32091 49.9594 8.6743 50.6443C9.85426 52.9311 10.8349 54.8318 11.9446 56.3452C13.3501 58.262 14.9078 59.4734 17.2601 59.9278C17.648 60.0028 17.9017 60.378 17.8268 60.7659C17.7518 61.1539 17.3766 61.4076 16.9887 61.3327C14.1974 60.7934 12.3522 59.3207 10.7908 57.1913C9.60843 55.5787 8.55717 53.5403 7.36465 51.2279C7.01924 50.5582 6.66199 49.8654 6.28626 49.1534C6.10187 48.804 6.23567 48.3712 6.5851 48.1868Z" fill="#2B302B"/>
</g>
<defs>
<clipPath id="clip0_291_1223">
<rect width="66" height="66" fill="white"/>
</clipPath>
</defs>
</svg>
