<svg width="66" height="66" viewBox="0 0 66 66" fill="none" xmlns="http://www.w3.org/2000/svg">
<path d="M18.3965 33.8111C18.3965 33.4466 18.6919 33.1511 19.0565 33.1511H19.8452V32.3624C19.8452 31.9979 20.1406 31.7024 20.5052 31.7024C20.8698 31.7024 21.1652 31.9979 21.1652 32.3624V33.1511H21.9539C22.3185 33.1511 22.6139 33.4466 22.6139 33.8111C22.6139 34.1757 22.3185 34.4711 21.9539 34.4711H21.1652V35.2598C21.1652 35.6244 20.8698 35.9198 20.5052 35.9198C20.1406 35.9198 19.8452 35.6244 19.8452 35.2598V34.4711H19.0565C18.6919 34.4711 18.3965 34.1756 18.3965 33.8111ZM43.9495 34.4711H44.7382V35.2598C44.7382 35.6244 45.0336 35.9198 45.3982 35.9198C45.7628 35.9198 46.0582 35.6244 46.0582 35.2598V34.4711H46.8469C47.2115 34.4711 47.5069 34.1757 47.5069 33.8111C47.5069 33.4466 47.2115 33.1511 46.8469 33.1511H46.0582V32.3624C46.0582 31.9979 45.7628 31.7024 45.3982 31.7024C45.0336 31.7024 44.7382 31.9979 44.7382 32.3624V33.1511H43.9495C43.5849 33.1511 43.2895 33.4466 43.2895 33.8111C43.2895 34.1757 43.5849 34.4711 43.9495 34.4711ZM26.3452 12.34C26.3766 12.3445 26.4077 12.3468 26.4385 12.3468C26.762 12.3468 27.0446 12.1086 27.0911 11.7792L27.1238 11.5479C27.1751 11.187 26.9239 10.8529 26.563 10.802C26.2009 10.7498 25.868 11.0021 25.817 11.3628L25.7843 11.5941C25.7331 11.955 25.9843 12.2891 26.3452 12.34ZM10.2409 64.6741H9.7438C9.37922 64.6741 9.0838 64.9695 9.0838 65.3341C9.0838 65.6986 9.37922 65.9941 9.7438 65.9941H10.2409C10.6055 65.9941 10.9009 65.6986 10.9009 65.3341C10.9009 64.9695 10.6055 64.6741 10.2409 64.6741ZM54.4431 65.3341C54.4431 65.6986 54.1477 65.9941 53.7831 65.9941H47.3799C47.3653 65.9941 47.3514 65.9908 47.3369 65.9897C47.2558 65.9947 47.1746 65.9987 47.0933 65.9987C46.821 65.9987 46.5479 65.9707 46.279 65.9137C46.266 65.9109 46.253 65.9077 46.2402 65.9042L40.374 64.2849C40.0226 64.188 39.8163 63.8245 39.9135 63.4733C40.0103 63.1219 40.3737 62.9154 40.7251 63.0127L46.571 64.6263C47.2599 64.767 47.9872 64.6238 48.5703 64.2325C49.141 63.8495 49.5217 63.2731 49.6424 62.6097C49.7641 61.9391 49.612 61.2547 49.2138 60.683C49.1981 60.6606 49.1838 60.6372 49.1713 60.6131L41.1128 45.2913V51.905L46.0887 60.9844C46.2173 61.219 46.1915 61.5079 46.0236 61.7159C45.8557 61.9241 45.5786 62.01 45.3224 61.9344L41.4527 60.7881C41.1033 60.6846 40.9039 60.3174 41.0073 59.9679C41.1108 59.6183 41.4779 59.4189 41.8276 59.5225L44.1611 60.2136L40.0634 52.7365H37.1285C39.01 54.0565 40.2436 56.2403 40.2436 58.7082C40.2436 62.7288 36.9726 65.9997 32.952 65.9997C28.9315 65.9997 25.6605 62.7288 25.6605 58.7082C25.6605 56.2403 26.8939 54.0564 28.7756 52.7365H25.8412L21.7434 60.2136L24.1075 59.5134C24.4572 59.4095 24.8244 59.6093 24.9278 59.9588C25.0312 60.3082 24.8318 60.6755 24.4824 60.779L20.5821 61.9343C20.326 62.0099 20.0488 61.924 19.8809 61.7158C19.713 61.5078 19.6872 61.2188 19.8158 60.9843L24.7913 51.9056V45.2918L16.7332 60.6129C16.7205 60.6372 16.7064 60.6605 16.6907 60.6829C16.2925 61.2547 16.1403 61.939 16.2621 62.6096C16.3826 63.273 16.7633 63.8493 17.3339 64.2324C17.9172 64.6236 18.645 64.7671 19.3332 64.6261L25.0604 63.0454C25.4111 62.9486 25.7752 63.1547 25.8721 63.506C25.9691 63.8574 25.7629 64.2208 25.4115 64.3177L19.6641 65.904C19.6513 65.9076 19.6384 65.9108 19.6253 65.9135C19.3564 65.9706 19.0835 65.9985 18.811 65.9985C18.7531 65.9985 18.6954 65.9947 18.6376 65.9922C18.6316 65.9923 18.6262 65.9939 18.6203 65.9939H12.2168C11.8522 65.9939 11.5568 65.6985 11.5568 65.3339C11.5568 64.9693 11.8522 64.6739 12.2168 64.6739H15.8497C15.3952 64.16 15.0883 63.5341 14.9632 62.8455C14.7805 61.8407 15.0007 60.8189 15.5831 59.9636L24.7911 42.4562V35.3866C24.7911 35.373 24.7943 35.3603 24.7951 35.347V32.2938C24.0621 28.3913 23.9719 24.4176 24.5282 20.4816L25.515 13.4995C25.5661 13.1388 25.8995 12.8881 26.2608 12.9382C26.6217 12.9893 26.873 13.3233 26.8221 13.684L25.8353 20.6663C25.3216 24.3001 25.3807 27.9674 26.0074 31.5756H39.8956C40.5224 27.9674 40.5812 24.3003 40.0678 20.6664L37.8928 5.27842H35.2578L34.8288 27.2043C35.3662 27.4192 35.749 27.9583 35.749 28.5895V29.5024C35.749 29.867 35.4536 30.1624 35.089 30.1624C34.7244 30.1624 34.429 29.867 34.429 29.5024V28.5895C34.429 28.4918 34.3681 28.4236 34.3136 28.4236H34.1577H33.9797H31.9234H31.7453H31.5894C31.5349 28.4236 31.474 28.4918 31.474 28.5895V29.5024C31.474 29.867 31.1786 30.1624 30.814 30.1624C30.4495 30.1624 30.154 29.867 30.154 29.5024V28.5895C30.154 27.9583 30.5368 27.4192 31.0742 27.2043L30.6452 5.27842H28.0101L27.4887 8.96795C27.4376 9.3287 27.1051 9.57937 26.7428 9.52908C26.382 9.478 26.1307 9.14404 26.1816 8.78315L27.1187 2.15345C27.2921 0.925848 28.3167 0 29.5018 0C30.8032 0 31.8839 1.10867 31.9106 2.4717L32.3925 27.1037H33.5104L33.9923 2.4717C34.019 1.1088 35.0994 0 36.4012 0C37.5864 0 38.6109 0.925848 38.7845 2.15358L41.375 20.4816C41.9312 24.4175 41.8409 28.3913 41.1081 32.2938V35.338C41.1092 35.3544 41.1129 35.3699 41.1129 35.3866V42.4557L50.3214 59.9639C50.9036 60.819 51.1238 61.8407 50.9413 62.8457C50.8161 63.5342 50.5091 64.1602 50.0546 64.6742H53.7832C54.1477 64.6741 54.4431 64.9695 54.4431 65.3341ZM30.6195 3.95842L30.5908 2.49744C30.578 1.84826 30.0896 1.32 29.5018 1.32C28.9615 1.32 28.5091 1.74821 28.4258 2.33825L28.1967 3.95842H30.6195ZM37.7063 3.95842L37.4773 2.33838C37.394 1.74821 36.9413 1.32 36.4012 1.32C35.8134 1.32 35.3249 1.84813 35.3122 2.49744L35.2836 3.95842H37.7063ZM26.1151 34.7266H39.7879V32.8956H26.1151V34.7266ZM32.9519 52.7368C29.6592 52.7368 26.9804 55.4157 26.9804 58.7084C26.9804 62.0012 29.659 64.68 32.9519 64.68C36.2448 64.68 38.9235 62.0012 38.9235 58.7084C38.9235 55.4157 36.2446 52.7368 32.9519 52.7368ZM36.1598 52.1622C36.1561 52.1339 36.1512 52.1059 36.1512 52.0768V50.4911C36.1512 48.7271 34.7161 47.292 32.952 47.292C31.1881 47.292 29.753 48.7271 29.753 50.4911V52.0768C29.753 52.1061 29.7481 52.1339 29.7444 52.1622C30.7131 51.6857 31.8017 51.4168 32.9522 51.4168C34.1024 51.4168 35.191 51.6855 36.1598 52.1622ZM37.4711 50.4911V51.4168H39.7928V42.6186V36.0466H26.1111V42.6138C26.1111 42.6154 26.1115 42.6169 26.1115 42.6184V51.4166H28.4328V50.4909C28.4328 47.999 30.46 45.9719 32.9518 45.9719C35.4438 45.9719 37.4711 47.9992 37.4711 50.4911ZM56.2561 64.6741H55.759C55.3944 64.6741 55.099 64.9695 55.099 65.3341C55.099 65.6986 55.3944 65.9941 55.759 65.9941H56.2561C56.6207 65.9941 56.9161 65.6986 56.9161 65.3341C56.9161 64.9695 56.6206 64.6741 56.2561 64.6741Z" fill="#2B302B"/>
</svg>
