<svg width="96" height="96" viewBox="0 0 96 96" fill="none" xmlns="http://www.w3.org/2000/svg">
<g id="reshot-icon-headstand-KJMDQ35YXV">
<path id="Vector" d="M34.5666 49.2498C34.5666 48.9128 34.8383 48.6398 35.1737 48.6398H35.8992V47.9109C35.8992 47.5739 36.171 47.3009 36.5063 47.3009C36.8417 47.3009 37.1135 47.5739 37.1135 47.9109V48.6398H37.839C38.1744 48.6398 38.4461 48.9128 38.4461 49.2498C38.4461 49.5868 38.1744 49.8598 37.839 49.8598H37.1135V50.5888C37.1135 50.9257 36.8417 51.1988 36.5063 51.1988C36.171 51.1988 35.8992 50.9257 35.8992 50.5888V49.8598H35.1737C34.8383 49.8598 34.5666 49.5867 34.5666 49.2498ZM58.0723 49.8598H58.7978V50.5888C58.7978 50.9257 59.0695 51.1988 59.4049 51.1988C59.7403 51.1988 60.012 50.9257 60.012 50.5888V49.8598H60.7375C61.0729 49.8598 61.3446 49.5868 61.3446 49.2498C61.3446 48.9128 61.0729 48.6398 60.7375 48.6398H60.012V47.9109C60.012 47.5739 59.7403 47.3009 59.4049 47.3009C59.0695 47.3009 58.7978 47.5739 58.7978 47.9109V48.6398H58.0723C57.7369 48.6398 57.4651 48.9128 57.4651 49.2498C57.4651 49.5868 57.7369 49.8598 58.0723 49.8598ZM41.8784 29.4052C41.9073 29.4094 41.936 29.4114 41.9642 29.4114C42.2619 29.4114 42.5218 29.1913 42.5646 28.8868L42.5947 28.6731C42.6418 28.3395 42.4107 28.0308 42.0787 27.9837C41.7457 27.9355 41.4394 28.1686 41.3926 28.502L41.3625 28.7158C41.3154 29.0493 41.5464 29.3581 41.8784 29.4052ZM27.0644 77.7747H26.6071C26.2717 77.7747 26 78.0478 26 78.3848C26 78.7217 26.2717 78.9948 26.6071 78.9948H27.0644C27.3998 78.9948 27.6715 78.7217 27.6715 78.3848C27.6715 78.0478 27.3998 77.7747 27.0644 77.7747ZM67.7251 78.3848C67.7251 78.7217 67.4534 78.9948 67.118 78.9948H61.2278C61.2144 78.9948 61.2016 78.9917 61.1882 78.9907C61.1137 78.9954 61.039 78.999 60.9642 78.999C60.7137 78.999 60.4625 78.9732 60.2151 78.9205C60.2031 78.9179 60.1912 78.915 60.1794 78.9117L54.7832 77.4151C54.46 77.3255 54.2702 76.9896 54.3596 76.6649C54.4487 76.3401 54.783 76.1493 55.1062 76.2393L60.4837 77.7306C61.1175 77.8606 61.7865 77.7283 62.3228 77.3667C62.8479 77.0126 63.1981 76.48 63.309 75.8668C63.421 75.247 63.2811 74.6144 62.9148 74.0861C62.9003 74.0653 62.8872 74.0437 62.8757 74.0214L55.4629 59.8603V65.973L60.0401 74.3646C60.1583 74.5814 60.1346 74.8484 59.9802 75.0407C59.8257 75.2331 59.5709 75.3125 59.3352 75.2426L55.7755 74.1832C55.4541 74.0875 55.2706 73.7481 55.3658 73.4251C55.461 73.102 55.7987 72.9177 56.1204 73.0134L58.2669 73.6522L54.4975 66.7415H51.7978C53.5286 67.9615 54.6633 69.9799 54.6633 72.2608C54.6633 75.9768 51.6544 79 47.9559 79C44.2575 79 41.2486 75.9768 41.2486 72.2608C41.2486 69.9799 42.3832 67.9614 44.1141 66.7415H41.4148L37.6453 73.6522L39.82 73.005C40.1417 72.909 40.4795 73.0937 40.5745 73.4166C40.6697 73.7396 40.4863 74.0791 40.1649 74.1748L36.577 75.2425C36.3415 75.3124 36.0865 75.233 35.932 75.0406C35.7776 74.8483 35.7539 74.5813 35.8722 74.3645L40.449 65.9735V59.8608L33.0365 74.0213C33.0249 74.0437 33.0119 74.0652 32.9974 74.0859C32.6311 74.6144 32.4911 75.2469 32.6032 75.8667C32.714 76.4798 33.0642 77.0125 33.5891 77.3665C34.1257 77.7281 34.7951 77.8608 35.4282 77.7305L40.6966 76.2695C41.0192 76.18 41.3541 76.3705 41.4432 76.6952C41.5325 77.0199 41.3428 77.3558 41.0196 77.4453L35.7326 78.9116C35.7209 78.9148 35.709 78.9178 35.6969 78.9203C35.4496 78.973 35.1985 78.9989 34.9479 78.9989C34.8946 78.9989 34.8415 78.9954 34.7883 78.993C34.7829 78.9932 34.7779 78.9946 34.7724 78.9946H28.882C28.5466 78.9946 28.2749 78.7216 28.2749 78.3846C28.2749 78.0477 28.5466 77.7746 28.882 77.7746H32.2238C31.8058 77.2997 31.5235 76.7212 31.4084 76.0847C31.2403 75.156 31.4428 74.2116 31.9786 73.4212L40.4489 57.24V50.7059C40.4489 50.6933 40.4518 50.6816 40.4525 50.6693V47.8474C39.7782 44.2406 39.6953 40.5679 40.207 36.9301L41.1148 30.4769C41.1618 30.1434 41.4685 29.9118 41.8008 29.9581C42.1328 30.0053 42.364 30.314 42.3171 30.6474L41.4093 37.1008C40.9369 40.4593 40.9912 43.8487 41.5677 47.1836H54.3432C54.9197 43.8487 54.9739 40.4594 54.5015 37.1009L52.5008 22.8786H50.077L49.6823 43.1434C50.1766 43.3421 50.5288 43.8403 50.5288 44.4237V45.2675C50.5288 45.6044 50.257 45.8775 49.9217 45.8775C49.5863 45.8775 49.3145 45.6044 49.3145 45.2675V44.4237C49.3145 44.3334 49.2586 44.2704 49.2084 44.2704H49.065H48.9012H47.0097H46.8459H46.7025C46.6523 44.2704 46.5963 44.3334 46.5963 44.4237V45.2675C46.5963 45.6044 46.3246 45.8775 45.9892 45.8775C45.6538 45.8775 45.3821 45.6044 45.3821 45.2675V44.4237C45.3821 43.8403 45.7342 43.3421 46.2285 43.1434L45.8339 22.8786H43.4099L42.9303 26.2886C42.8833 26.622 42.5774 26.8537 42.2441 26.8072C41.9123 26.76 41.6811 26.4513 41.728 26.1178L42.5899 19.9903C42.7495 18.8557 43.692 18 44.7821 18C45.9793 18 46.9734 19.0247 46.9979 20.2845L47.4412 43.0505H48.4695L48.9129 20.2845C48.9374 19.0248 49.9312 18 51.1287 18C52.219 18 53.1614 18.8557 53.321 19.9904L55.704 36.9301C56.2157 40.5678 56.1326 44.2406 55.4585 47.8474V50.661C55.4596 50.6761 55.463 50.6905 55.463 50.7059V57.2395L63.9336 73.4214C64.4692 74.2117 64.6718 75.156 64.5039 76.0849C64.3887 76.7213 64.1063 77.2998 63.6882 77.7749H67.1181C67.4534 77.7747 67.7251 78.0478 67.7251 78.3848ZM45.8102 21.6586L45.7839 20.3082C45.7721 19.7083 45.3228 19.22 44.7821 19.22C44.2851 19.22 43.8689 19.6158 43.7923 20.1611L43.5816 21.6586H45.8102ZM52.3293 21.6586L52.1186 20.1612C52.042 19.6158 51.6256 19.22 51.1287 19.22C50.588 19.22 50.1386 19.7081 50.127 20.3082L50.1006 21.6586H52.3293ZM41.6668 50.0959H54.2441V48.4036H41.6668V50.0959ZM47.9558 66.7418C44.9269 66.7418 42.4627 69.2178 42.4627 72.2611C42.4627 75.3044 44.9268 77.7802 47.9558 77.7802C50.9848 77.7802 53.4489 75.3044 53.4489 72.2611C53.4489 69.2178 50.9847 66.7418 47.9558 66.7418ZM50.9066 66.2107C50.9032 66.1846 50.8988 66.1587 50.8988 66.1318V64.6662C50.8988 63.0359 49.5786 61.7095 47.9559 61.7095C46.3333 61.7095 45.0132 63.0359 45.0132 64.6662V66.1318C45.0132 66.1588 45.0087 66.1846 45.0053 66.2107C45.8963 65.7703 46.8977 65.5218 47.956 65.5218C49.0141 65.5218 50.0155 65.7701 50.9066 66.2107ZM52.1129 64.6662V65.5218H54.2486V57.3901V51.3159H41.6631V57.3857C41.6631 57.3871 41.6635 57.3885 41.6635 57.3899V65.5216H43.7987V64.666C43.7987 62.3629 45.6636 60.4894 47.9557 60.4894C50.248 60.4894 52.1129 62.363 52.1129 64.6662ZM69.3929 77.7747H68.9356C68.6002 77.7747 68.3285 78.0478 68.3285 78.3848C68.3285 78.7217 68.6002 78.9948 68.9356 78.9948H69.3929C69.7283 78.9948 70 78.7217 70 78.3848C70 78.0478 69.7281 77.7747 69.3929 77.7747Z" fill="#6FD91B"/>
<path d="M1 30C1 13.9837 13.9837 1 30 1H95V66C95 82.0163 82.0163 95 66 95H1V30Z" stroke="#62BB1D" stroke-width="2"/>
</g>
</svg>
